Coordinates
version=1
nRows=14
nColumns=24
inDegrees=yes

Units are S.I. units (second, meters, Newtons, ...)
Angles are in degrees.

endheader
time	pelvis_tilt	pelvis_list	pelvis_rotation	pelvis_tx	pelvis_ty	pelvis_tz	hip_flexion_r	hip_adduction_r	hip_rotation_r	knee_angle_r	ankle_angle_r	subtalar_angle_r	mtp_angle_r	hip_flexion_l	hip_adduction_l	hip_rotation_l	knee_angle_l	ankle_angle_l	subtalar_angle_l	mtp_angle_l	lumbar_extension	lumbar_bending	lumbar_rotation
      3.59500000	    -10.42413297	     -2.14029093	     -5.09539352	     -1.40736717	     -0.01649145	     -0.23798089	      5.66228022	      6.41235417	      0.52588745	    -11.18738781	      7.25908473	     -7.22330460	     13.24009859	     36.96006725	     -7.09839305	     -9.18421077	    -44.66361661	     -5.36849261	     -8.49694630	     17.52315083	      4.83157060	      3.73029282	      4.39698923
      3.60000000	    -10.41776418	     -1.95012903	     -5.34205611	     -1.40066207	     -0.01699787	     -0.23764601	      5.09533833	      6.20087084	      0.74953466	    -10.92630290	      7.48951247	     -7.10922886	     13.22951308	     37.11568537	     -6.99539689	     -9.39343786	    -43.17796139	     -5.33061179	     -8.24556006	     17.14600433	      4.77472306	      3.54974792	      4.68157051
      3.60500000	    -10.57193932	     -1.86530292	     -5.43147945	     -1.39398233	     -0.01782466	     -0.23755203	      4.70158546	      6.10207896	      0.82097306	    -10.66772572	      7.65978835	     -7.12844241	     13.22377524	     37.49437946	     -6.87927901	     -9.29051508	    -41.72153320	     -5.32860471	     -7.99698498	     16.98658310	      4.88458487	      3.47364087	      4.81778587
      3.61000000	    -10.43808923	     -1.66614453	     -5.58356319	     -1.38724415	     -0.01826152	     -0.23741621	      3.99527832	      5.84054598	      0.89881096	    -10.40200372	      7.90556854	     -6.94276284	     13.08365167	     37.47210028	     -6.68118269	     -9.41025838	    -40.21286143	     -5.04293032	     -7.60241510	     15.40749212	      4.69463204	      3.26773040	      4.99100524
      3.61500000	    -10.65826626	     -1.53095152	     -5.78771837	     -1.38055694	     -0.01919262	     -0.23718300	      3.71133304	      5.70060375	      1.07059379	    -10.20903963	      8.10203482	     -6.90051669	     13.08115524	     37.84617120	     -6.61497751	     -9.49971529	    -38.68998321	     -5.10401003	     -7.47502923	     15.08858759	      4.87879401	      3.15915753	      5.24418579
      3.62000000	    -10.71003173	     -1.36386573	     -5.97096733	     -1.37389969	     -0.01994284	     -0.23705781	      3.25657370	      5.49528727	      1.17325614	    -10.02471778	      8.31143824	     -6.81349518	     13.05987808	     37.98944991	     -6.47182072	     -9.56201956	    -37.10738805	     -5.10635646	     -7.35680416	     14.53351682	      4.87396656	      3.01205890	      5.50568007
      3.62500000	    -10.77931083	     -1.20273006	     -6.11367724	     -1.36717480	     -0.02075491	     -0.23695019	      2.81535531	      5.29463331	      1.21112001	     -9.83511707	      8.51961241	     -6.71260007	     13.03340632	     38.13924680	     -6.31529866	     -9.59523950	    -35.52404580	     -5.09393277	     -7.23363269	     13.85656834	      4.89971488	      2.85916606	      5.71020141
      3.63000000	    -10.79114621	     -1.05962321	     -6.18636626	     -1.36040522	     -0.02155355	     -0.23693907	      2.30656067	      5.09433954	      1.11321202	     -9.64485935	      8.76945996	     -6.50048077	     12.95582927	     38.22556139	     -6.12528381	     -9.54268547	    -33.99516279	     -4.79078760	     -6.85798468	     12.27044341	      4.86562730	      2.70765311	      5.82849449
      3.63500000	    -10.91394276	     -0.89984880	     -6.34022171	     -1.35367281	     -0.02247111	     -0.23683303	      1.95173068	      4.90377974	      1.14173387	     -9.50291284	      8.94124319	     -6.44757600	     12.91374408	     38.40271878	     -5.98089608	     -9.56969746	    -32.42888674	     -4.73251636	     -6.75679178	     11.27019290	      4.94806461	      2.56138069	      6.06159566
      3.64000000	    -11.10130230	     -0.77047784	     -6.46019047	     -1.34691609	     -0.02349761	     -0.23673373	      1.66590519	      4.75773308	      1.14647606	     -9.36379762	      9.06296897	     -6.45971574	     12.90635458	     38.64324760	     -5.85556659	     -9.54466851	    -30.84957464	     -4.86675542	     -6.78848791	     10.98784388	      5.10219185	      2.44091289	      6.24604321
      3.64500000	    -11.20694284	     -0.60011458	     -6.58070823	     -1.34012318	     -0.02442664	     -0.23665215	      1.30502733	      4.55174725	      1.10095496	     -9.24387858	      9.21652206	     -6.39126603	     12.90553322	     38.76050668	     -5.68036796	     -9.53738205	    -29.25855121	     -4.98495764	     -6.83608268	     10.61498693	      5.17165338	      2.27193349	      6.44471478
      3.65000000	    -11.24127649	     -0.42314455	     -6.70894479	     -1.33337167	     -0.02528679	     -0.23663009	      0.89928268	      4.32440755	      0.95877405	     -9.17379232	      9.40566004	     -6.24596291	     12.90402601	     38.78175953	     -5.48210667	     -9.49806417	    -27.68585512	     -5.05790860	     -6.93870008	     10.01597683	      5.15198366	      2.09300648	      6.68319914
      3.65500000	    -11.24220187	     -0.24026352	     -6.75107220	     -1.32647437	     -0.02614819	     -0.23669711	      0.43499147	      4.07380037	      0.69357412	     -9.08446547	      9.65296253	     -5.94951204	     12.86888824	     38.77634370	     -5.22847548	     -9.39336417	    -26.21326576	     -4.84670227	     -6.77701898	      8.58672548	      5.12035080	      1.88838981	      6.78852377
      3.66000000	    -11.45557481	     -0.10340550	     -6.88273954	     -1.31963703	     -0.02723793	     -0.23658128	      0.22047072	      3.93091918	      0.66169275	     -9.02171808	      9.69078642	     -6.03440801	     12.83453996	     39.00608860	     -5.12126798	     -9.40218237	    -24.77147945	     -4.96855022	     -6.86425730	      8.21503019	      5.30483172	      1.75388289	      7.00781136
